<?xml version="1.0" encoding="UTF-8"?>
<svg xmlns="http://www.w3.org/2000/svg" width="600" height="180" viewBox="0 0 600 180" fill="none">
  <path d="M345.11 71.2V58.36C345.11 58.1192 345.164 57.8811 345.267 57.6632C345.371 57.4452 345.522 57.2528 345.71 57.1C346.097 56.78 346.77 56.4033 347.73 55.97C359.3 50.76 373.29 50.43 384.4 57.24C402.01 68.05 406.27 89.42 398.34 107.75C391.69 123.13 376.74 131.06 359.98 129.55C347.027 128.39 337.45 122.183 331.25 110.93C326.74 102.75 325.98 94.55 326.01 84.3C326.057 69.04 326.053 47.5633 326 19.87C326 19.7374 326.053 19.6102 326.146 19.5164C326.24 19.4227 326.367 19.37 326.5 19.37H339.41C339.524 19.37 339.633 19.4153 339.714 19.4959C339.795 19.5766 339.84 19.686 339.84 19.8C339.793 38.7533 339.793 61.8167 339.84 88.99C339.847 91.0833 340.23 93.75 340.99 96.99C344.01 109.79 353.29 117.76 366.65 116.44C382.44 114.88 390.43 99.92 388.02 85.74C386.833 78.78 383.717 73.4433 378.67 69.73C368.84 62.49 355.74 64.82 345.68 71.51C345.624 71.5458 345.56 71.566 345.493 71.5685C345.427 71.5709 345.361 71.5554 345.303 71.5237C345.245 71.4921 345.196 71.4453 345.162 71.3883C345.128 71.3314 345.11 71.2663 345.11 71.2Z" fill="#2E2E2E"></path>
  <path d="M426.751 19.37H413.771C413.561 19.37 413.391 19.5401 413.391 19.75V129.23C413.391 129.44 413.561 129.61 413.771 129.61H426.751C426.96 129.61 427.131 129.44 427.131 129.23V19.75C427.131 19.5401 426.96 19.37 426.751 19.37Z" fill="#2E2E2E"></path>
  <path d="M586.57 48.41C586.617 48.41 586.654 48.4067 586.68 48.4C586.732 48.3829 586.778 48.3613 586.812 48.3382C586.845 48.315 586.866 48.2913 586.87 48.27C587.564 45.6967 588.22 43.7167 588.84 42.33C588.96 42.0567 589.137 41.9067 589.37 41.88C589.696 41.837 590.025 41.9168 590.289 42.1029C590.553 42.289 590.733 42.5672 590.79 42.88C591.217 45.1867 591.597 47.9 591.93 51.02C591.942 51.1211 591.931 51.2234 591.9 51.3202C591.869 51.417 591.818 51.5061 591.75 51.5817C591.682 51.6573 591.599 51.7176 591.506 51.7587C591.413 51.7997 591.312 51.8206 591.21 51.82H590.83C590.629 51.82 590.435 51.7399 590.293 51.5974C590.15 51.4549 590.07 51.2616 590.07 51.06V45.68C590.068 45.5907 590.035 45.5048 589.977 45.4368C589.919 45.3688 589.84 45.3227 589.752 45.3063C589.664 45.29 589.573 45.3042 589.495 45.3467C589.416 45.3893 589.355 45.4575 589.32 45.54C588.894 46.6533 588.24 48.58 587.36 51.32C587.26 51.6333 586.99 51.79 586.55 51.79C586.117 51.7833 585.85 51.6233 585.75 51.31C584.897 48.5633 584.264 46.63 583.85 45.51C583.816 45.4281 583.756 45.3601 583.678 45.3174C583.6 45.2746 583.51 45.2595 583.423 45.2746C583.336 45.2898 583.256 45.3342 583.198 45.4006C583.139 45.4671 583.105 45.5515 583.1 45.64L583.04 51.02C583.04 51.2216 582.96 51.4149 582.818 51.5574C582.675 51.6999 582.482 51.78 582.28 51.78L581.9 51.77C581.799 51.7706 581.698 51.7497 581.605 51.7087C581.512 51.6676 581.429 51.6073 581.361 51.5317C581.293 51.4561 581.241 51.367 581.21 51.2702C581.179 51.1734 581.169 51.0711 581.18 50.97C581.547 47.85 581.957 45.14 582.41 42.84C582.47 42.527 582.652 42.2495 582.918 42.0652C583.184 41.8809 583.515 41.8038 583.84 41.85C584.074 41.8833 584.247 42.0367 584.36 42.31C584.967 43.7033 585.604 45.69 586.27 48.27C586.28 48.2905 586.303 48.3125 586.336 48.3336C586.37 48.3548 586.413 48.3743 586.46 48.39C586.487 48.4033 586.524 48.41 586.57 48.41Z" fill="#2E2E2E"></path>
  <path d="M578.22 42.15C579.093 42.0634 579.907 42.0267 580.66 42.04C580.823 42.0427 580.978 42.1091 581.092 42.2251C581.206 42.3411 581.27 42.4973 581.27 42.66V42.98C581.27 43.1126 581.216 43.2398 581.121 43.3336C581.025 43.4273 580.895 43.48 580.76 43.48H579.62C579.53 43.48 579.441 43.4979 579.357 43.5327C579.274 43.5675 579.199 43.6185 579.136 43.6827C579.072 43.7469 579.023 43.8231 578.989 43.9067C578.955 43.9904 578.939 44.0799 578.94 44.17C578.987 48.09 578.957 50.4467 578.85 51.24C578.79 51.6867 578.56 51.9067 578.16 51.9C577.76 51.9 577.533 51.68 577.48 51.24C577.38 50.44 577.38 48.08 577.48 44.16C577.483 44.0699 577.467 43.9801 577.435 43.896C577.403 43.8118 577.354 43.7349 577.292 43.6698C577.229 43.6046 577.155 43.5525 577.072 43.5165C576.989 43.4805 576.9 43.4613 576.81 43.46L575.67 43.45C575.603 43.4487 575.537 43.4345 575.476 43.4081C575.414 43.3818 575.359 43.3439 575.312 43.2965C575.266 43.2491 575.229 43.1933 575.205 43.1321C575.181 43.071 575.169 43.0057 575.17 42.94V42.62C575.173 42.4573 575.239 42.3022 575.355 42.1881C575.471 42.074 575.627 42.01 575.79 42.01C576.543 42.0034 577.353 42.05 578.22 42.15Z" fill="#2E2E2E"></path>
  <path d="M27.8098 110.49C27.8089 110.436 27.823 110.383 27.8505 110.337C27.878 110.29 27.9179 110.253 27.9657 110.228C28.0134 110.203 28.0672 110.192 28.1209 110.196C28.1746 110.2 28.2262 110.218 28.2698 110.25C41.1198 119.07 59.6598 119.8 68.0098 104.58C72.1998 96.95 72.2798 85.85 67.8798 77.57C62.4498 67.35 50.5898 63.28 39.7198 66.21C30.6998 68.63 25.6798 76.61 23.4498 85.98C22.8832 88.3667 22.5998 92.4033 22.5998 98.09C22.6065 139.963 22.6098 161.007 22.6098 161.22C22.6098 161.35 22.5582 161.475 22.4663 161.566C22.3744 161.658 22.2498 161.71 22.1198 161.71H9.39984C9.30342 161.71 9.2108 161.671 9.14169 161.602C9.07258 161.533 9.03245 161.439 9.02984 161.34C8.96984 126.9 8.98984 102.877 9.08984 89.27C9.13651 82.55 11.0132 76.03 14.7198 69.71C20.8998 59.1833 30.3265 53.3767 42.9998 52.29C66.4598 50.28 83.1999 66.46 84.7999 89.47C85.8999 105.3 78.2498 119.18 64.0798 126.33C53.3698 131.74 39.1998 130.49 28.4398 124.88C28.2502 124.78 28.0913 124.632 27.9803 124.45C27.8692 124.269 27.8103 124.061 27.8098 123.85V110.49Z" fill="#2E2E2E"></path>
  <path d="M260.71 106.58C260.656 106.61 260.609 106.652 260.573 106.703C260.537 106.754 260.512 106.812 260.501 106.874C260.489 106.936 260.491 107 260.507 107.061C260.522 107.122 260.551 107.18 260.59 107.23C265.616 113.463 272.146 116.597 280.18 116.63C295.05 116.7 302.32 107.36 304.78 93.81C304.804 93.678 304.878 93.5601 304.988 93.4803C305.097 93.4005 305.234 93.3647 305.37 93.38L318.33 94.97C318.47 94.985 318.598 95.055 318.688 95.1652C318.778 95.2755 318.821 95.4171 318.81 95.56C317.32 115.14 301.38 128.83 282.24 129.7C254.96 130.94 235.99 106.91 242.64 80.6C247.84 60.04 267.92 49.16 288.42 52.86C300.93 55.13 310.44 63.93 315.89 75.25C315.957 75.3871 315.969 75.5452 315.922 75.6919C315.876 75.8387 315.775 75.9632 315.64 76.04L260.71 106.58ZM255.8 94.56C255.804 94.6187 255.823 94.6754 255.855 94.7249C255.887 94.7743 255.931 94.8148 255.983 94.8428C256.035 94.8707 256.093 94.885 256.152 94.8846C256.211 94.8841 256.268 94.8688 256.32 94.84L296.36 72.57C296.414 72.5409 296.461 72.4996 296.497 72.4492C296.533 72.3989 296.557 72.3409 296.566 72.2799C296.576 72.2188 296.572 72.1564 296.553 72.0974C296.535 72.0384 296.503 71.9846 296.46 71.94C290.933 66.26 284.103 64.1533 275.97 65.62C261.34 68.25 254.73 80.14 255.8 94.56Z" fill="#2E2E2E"></path>
  <path d="M532.78 106.58C532.726 106.61 532.679 106.652 532.643 106.703C532.607 106.754 532.583 106.812 532.571 106.874C532.56 106.936 532.562 106.999 532.577 107.061C532.593 107.122 532.621 107.18 532.66 107.23C537.687 113.463 544.217 116.597 552.25 116.63C567.12 116.7 574.39 107.36 576.85 93.81C576.874 93.6779 576.949 93.5601 577.058 93.4803C577.168 93.4005 577.304 93.3646 577.44 93.38L590.4 94.97C590.54 94.985 590.669 95.055 590.758 95.1652C590.848 95.2754 590.892 95.4171 590.88 95.56C589.39 115.14 573.45 128.83 554.31 129.7C527.03 130.94 508.06 106.9 514.71 80.59C519.91 60.03 539.99 49.16 560.49 52.86C573 55.13 582.51 63.93 587.96 75.25C588.027 75.3871 588.039 75.5451 587.992 75.6919C587.946 75.8387 587.845 75.9632 587.71 76.04L532.78 106.58ZM527.9 94.49C527.904 94.5487 527.923 94.6054 527.955 94.6548C527.987 94.7043 528.031 94.7448 528.083 94.7727C528.135 94.8006 528.193 94.815 528.252 94.8145C528.311 94.8141 528.369 94.7987 528.42 94.77L568.42 72.57C568.475 72.5409 568.522 72.4995 568.557 72.4492C568.593 72.3988 568.617 72.3409 568.627 72.2798C568.636 72.2188 568.632 72.1564 568.613 72.0974C568.595 72.0384 568.563 71.9845 568.52 71.94C563.013 66.2667 556.197 64.1566 548.07 65.61C533.46 68.22 526.85 80.09 527.9 94.49Z" fill="#2E2E2E"></path>
  <path d="M180.011 62.93C180.008 62.9591 180.015 62.9883 180.032 63.0128C180.048 63.0372 180.071 63.0556 180.099 63.0648C180.127 63.0741 180.157 63.0737 180.184 63.0638C180.212 63.0538 180.235 63.0348 180.251 63.01C184.491 57.4166 189.554 54.2933 195.441 53.64C199.801 53.16 203.661 53.18 207.021 53.7C219.051 55.59 228.381 64.24 231.721 75.97C232.821 79.82 232.851 84.96 233.041 88.98C233.05 89.1313 233.006 89.281 232.917 89.4034C232.827 89.5257 232.698 89.6129 232.551 89.65C231.064 90.0233 229.294 89.5033 227.241 88.09C226.983 87.9126 226.688 87.7968 226.379 87.7518C226.07 87.7067 225.756 87.7334 225.461 87.83L220.131 89.57C219.991 89.6149 219.843 89.6247 219.699 89.5986C219.555 89.5725 219.419 89.5112 219.305 89.4202C219.19 89.3292 219.1 89.2113 219.041 89.0769C218.983 88.9426 218.959 88.7959 218.971 88.65C219.551 81.7966 217.711 76.21 213.451 71.89C207.261 65.61 197.351 64.9 189.991 69.53C182.071 74.51 180.671 86.46 180.661 94.75C180.647 103.803 180.651 115.273 180.671 129.16C180.671 129.279 180.623 129.394 180.539 129.478C180.455 129.563 180.34 129.61 180.221 129.61H167.151C167.058 129.61 166.969 129.573 166.903 129.507C166.838 129.442 166.801 129.353 166.801 129.26V55.36C166.801 55.1982 166.866 55.043 166.982 54.9286C167.099 54.8142 167.256 54.75 167.421 54.75H179.561C179.68 54.75 179.795 54.7974 179.879 54.8818C179.963 54.9662 180.011 55.0806 180.011 55.2V62.93Z" fill="#2E2E2E"></path>
  <path d="M124.561 116.65C134.691 116.65 142.491 107.91 142.551 97.74C142.657 81.0533 142.661 66.48 142.561 54.02C142.561 53.9166 142.601 53.8174 142.672 53.7442C142.743 53.6711 142.84 53.63 142.941 53.63H155.961C156.025 53.63 156.088 53.6425 156.147 53.6668C156.206 53.691 156.259 53.7266 156.304 53.7713C156.348 53.816 156.384 53.869 156.407 53.9271C156.431 53.9853 156.442 54.0475 156.441 54.11C156.414 62.2433 156.414 76.2067 156.441 96C156.461 115.26 144.601 129.71 124.561 129.72C104.511 129.72 92.6507 115.28 92.6707 96.02C92.6774 76.2267 92.6674 62.2633 92.6407 54.13C92.6394 54.0675 92.6508 54.0053 92.6744 53.9471C92.6979 53.889 92.733 53.836 92.7777 53.7913C92.8224 53.7466 92.8758 53.711 92.9347 53.6868C92.9936 53.6625 93.0568 53.65 93.1207 53.65L106.141 53.64C106.242 53.64 106.338 53.6811 106.409 53.7542C106.481 53.8274 106.521 53.9266 106.521 54.03C106.427 66.49 106.437 81.0633 106.551 97.75C106.621 107.92 114.431 116.65 124.561 116.65Z" fill="#2E2E2E"></path>
  <path d="M473.15 129.7C453.11 129.7 441.26 115.25 441.28 95.99C441.3 76.1967 441.296 62.2333 441.27 54.1C441.268 54.0375 441.28 53.9753 441.303 53.9171C441.327 53.8589 441.362 53.806 441.407 53.7612C441.451 53.7165 441.505 53.681 441.564 53.6568C441.623 53.6325 441.686 53.62 441.75 53.62H454.77C454.87 53.62 454.967 53.6611 455.038 53.7342C455.11 53.8074 455.15 53.9066 455.15 54.01C455.05 66.47 455.053 81.0433 455.16 97.73C455.22 107.9 463.03 116.63 473.16 116.63C483.28 116.64 491.09 107.9 491.16 97.74C491.273 81.0533 491.283 66.48 491.19 54.02C491.19 53.9166 491.23 53.8174 491.301 53.7442C491.372 53.6711 491.469 53.63 491.57 53.63L504.59 53.64C504.654 53.64 504.717 53.6525 504.776 53.6768C504.835 53.701 504.888 53.7365 504.933 53.7812C504.977 53.826 505.012 53.8789 505.036 53.9371C505.06 53.9953 505.071 54.0575 505.07 54.12C505.036 62.2533 505.026 76.2133 505.04 96C505.05 115.26 493.2 129.71 473.15 129.7Z" fill="#2E2E2E"></path>
  <path d="M225.91 97.77C226.003 97.77 226.096 97.8 226.19 97.86C226.303 97.9334 226.369 98.0167 226.389 98.11C226.729 99.7834 228.356 103.25 231.27 108.51C233.97 113.39 232.36 119.95 225.88 119.94C219.41 119.93 217.809 113.37 220.529 108.49C223.456 103.243 225.089 99.7834 225.429 98.11C225.449 98.0167 225.516 97.9334 225.63 97.86C225.73 97.8 225.823 97.77 225.91 97.77ZM226.55 117.46C226.494 117.521 226.459 117.6 226.452 117.682C226.444 117.765 226.464 117.848 226.509 117.918C226.553 117.989 226.619 118.043 226.697 118.072C226.775 118.101 226.86 118.104 226.94 118.08C231.36 116.68 231.95 111.56 229.08 108.49C229.037 108.447 228.982 108.42 228.922 108.411C228.862 108.402 228.801 108.413 228.75 108.442C228.698 108.471 228.658 108.516 228.636 108.57C228.614 108.624 228.612 108.684 228.63 108.74C229.55 112.007 228.856 114.913 226.55 117.46Z" fill="#2E2E2E"></path>
</svg>
